<?xml version="1.0" standalone="no"?>
<!DOCTYPE svg PUBLIC "-//W3C//DTD SVG 20010904//EN"
 "http://www.w3.org/TR/2001/REC-SVG-20010904/DTD/svg10.dtd">
<svg version="1.0" xmlns="http://www.w3.org/2000/svg"
 width="300.000000pt" height="299.000000pt" viewBox="0 0 300.000000 299.000000"
 preserveAspectRatio="xMidYMid meet">
<metadata>
Created by potrace 1.10, written by Peter Selinger 2001-2011
</metadata>
<g transform="translate(0.000000,299.000000) scale(0.100000,-0.100000)"
fill="#000000" stroke="none">
<path d="M1378 2777 l-348 -212 0 -173 0 -172 50 -28 50 -27 2 -340 2 -340 6
340 c3 204 1 345 -4 353 -5 8 -27 22 -48 33 l-38 19 0 166 c0 100 4 163 9 159
6 -3 13 1 18 9 4 8 42 33 83 57 41 23 82 48 90 55 8 7 21 14 29 16 7 2 24 12
36 23 13 11 65 44 117 74 51 29 131 77 178 106 73 46 86 52 94 38 5 -10 5 -23
-2 -34 -8 -13 -8 -19 1 -23 9 -3 8 -7 -3 -15 -10 -7 -11 -11 -2 -11 9 0 12
-37 12 -150 0 -134 -2 -151 -17 -157 -10 -4 -27 -15 -37 -25 -10 -9 -22 -15
-26 -13 -5 3 -11 -2 -14 -11 -4 -9 -9 -14 -12 -11 -3 2 -16 -5 -29 -17 -13
-12 -36 -28 -52 -36 -15 -8 -39 -25 -53 -37 -14 -13 -28 -23 -31 -23 -10 0 -4
-513 5 -528 4 -7 2 -19 -4 -27 -9 -11 -9 -15 -1 -15 6 0 11 -16 11 -36 0 -25
-3 -33 -12 -28 -10 6 -10 5 -2 -7 8 -9 12 -88 13 -244 1 -126 5 -233 9 -237 5
-5 58 -10 120 -12 75 -3 123 -10 146 -21 19 -9 43 -15 53 -13 17 3 18 34 20
627 2 343 5 626 7 628 9 10 212 -106 223 -127 8 -16 11 -181 11 -591 0 -440 2
-572 12 -584 7 -8 35 -22 64 -30 78 -23 240 -88 248 -100 4 -5 8 -7 8 -3 0 17
239 -91 270 -122 11 -11 29 -20 40 -20 11 0 20 -4 20 -10 0 -5 6 -10 13 -10 7
0 22 -7 33 -14 10 -8 -23 -1 -73 15 -51 17 -93 35 -93 39 0 4 -9 6 -20 3 -12
-3 -20 0 -20 8 0 7 -3 10 -6 6 -4 -3 -22 0 -41 8 -20 8 -44 15 -54 15 -11 0
-27 4 -37 9 -9 5 -64 19 -122 31 -58 12 -118 26 -135 31 -40 11 -261 46 -405
64 -115 14 -576 15 -645 0 -16 -3 -64 -10 -105 -15 -146 -18 -275 -45 -436
-91 -56 -16 -107 -29 -113 -29 -6 0 -30 -8 -54 -19 -99 -44 -197 -79 -197 -70
0 5 6 9 14 9 8 0 16 5 18 11 2 5 12 11 22 13 10 1 24 10 31 19 7 9 15 14 18
10 4 -3 7 -1 7 5 0 12 239 132 263 132 9 0 19 4 22 10 3 5 64 28 135 50 70 23
134 47 140 55 9 11 10 142 5 540 -7 541 -7 532 28 526 5 -1 6 2 3 7 -5 9 43
37 50 30 2 -2 4 -94 6 -203 2 -118 7 -203 13 -207 7 -5 6 -14 -2 -28 -15 -23
-17 -42 -3 -20 7 10 10 -59 8 -218 -2 -150 1 -232 7 -232 6 0 3 -5 -5 -10 -10
-6 -11 -10 -2 -10 8 0 12 -19 12 -61 0 -72 12 -99 40 -92 11 3 20 9 20 14 0 4
16 11 35 15 l35 6 0 142 c0 79 3 284 7 457 l6 315 -37 22 c-20 12 -39 22 -42
22 -2 0 -4 -218 -4 -484 0 -440 -2 -484 -16 -490 -9 -4 -19 -5 -21 -3 -3 4
-18 556 -25 939 -2 93 -4 168 -6 168 -2 0 -33 -17 -69 -37 l-65 -38 7 -532 c6
-444 5 -533 -6 -537 -291 -81 -512 -187 -726 -348 -110 -82 -122 -96 -49 -57
136 74 408 172 616 223 552 134 1168 108 1790 -76 129 -38 318 -108 428 -159
45 -21 82 -36 82 -34 0 6 -217 144 -305 193 -118 66 -306 148 -477 207 l-138
48 0 593 0 593 -137 73 c-76 40 -140 74 -143 76 -3 1 -4 -289 -2 -644 2 -592
1 -646 -13 -640 -9 3 -21 6 -26 6 -5 0 -9 262 -9 649 l0 650 -112 -81 c-62
-44 -119 -82 -125 -85 -10 -4 -13 -127 -15 -562 -1 -355 -4 -507 -8 -421 -4
74 -8 329 -9 565 l-2 430 136 90 136 90 -1 222 c-1 123 -2 223 -3 222 -1 0
-158 -95 -349 -212z m322 -633 c1 -170 1 -441 1 -602 l-1 -294 -47 6 c-27 4
-69 9 -95 12 l-48 7 -1 306 c-1 168 -3 377 -4 464 -2 87 0 188 3 224 l7 66 90
62 c50 35 91 62 92 61 1 -1 3 -141 3 -312z m-611 -465 c-1 -241 -6 -439 -10
-439 -7 0 -16 236 -10 272 0 4 1 145 1 313 1 194 4 303 11 300 6 -4 9 -171 8
-446z"/>
<path d="M310 548 l0 -268 50 0 50 0 0 78 0 78 48 47 47 47 74 -125 73 -125
69 0 68 0 -105 161 c-89 137 -103 163 -93 177 7 10 54 59 103 111 50 51 83 91
73 87 -10 -3 -45 -6 -77 -6 l-58 0 -103 -114 c-57 -63 -107 -115 -111 -115 -5
-1 -8 52 -8 117 l0 117 -50 0 -50 0 0 -267z m73 160 c-3 -93 3 -134 24 -142
24 -9 49 11 143 117 78 89 88 96 122 97 l38 0 -71 -72 c-39 -40 -74 -80 -79
-89 -10 -17 -4 -27 103 -194 37 -59 67 -108 67 -110 0 -1 -12 -5 -26 -8 -29
-5 -53 15 -79 67 -37 74 -91 160 -107 170 -14 8 -25 4 -54 -20 -63 -51 -75
-73 -77 -146 -1 -57 -4 -68 -21 -72 -11 -3 -23 -3 -26 0 -6 7 -9 431 -3 457 3
10 14 17 27 17 21 0 22 -3 19 -72z"/>
<path d="M850 548 l0 -268 50 0 50 0 0 268 0 267 -50 0 -50 0 0 -267z m66 229
c8 -8 14 -434 6 -454 -2 -7 -12 -13 -22 -13 -10 0 -20 6 -22 13 -2 6 -3 82 -2
167 3 306 3 298 19 296 8 -1 18 -5 21 -9z"/>
<path d="M1200 807 c-57 -18 -126 -95 -146 -163 -34 -118 5 -264 87 -324 78
-56 211 -64 314 -20 84 36 85 39 85 159 l0 106 -115 0 -115 0 0 -45 0 -45 60
3 60 4 0 -42 c0 -39 -2 -42 -42 -60 -83 -38 -169 -18 -210 48 -30 49 -37 173
-11 222 27 52 75 80 139 80 42 0 59 -5 83 -26 17 -14 31 -33 31 -41 0 -12 9
-14 53 -8 28 4 54 9 55 10 2 2 -1 19 -8 39 -14 44 -67 92 -117 105 -48 14
-157 12 -203 -2z m214 -31 c18 -7 45 -29 59 -47 l27 -34 -26 -9 c-22 -7 -31
-3 -65 30 -39 38 -42 39 -109 38 -60 0 -72 -4 -103 -30 -52 -43 -72 -95 -71
-180 2 -118 59 -197 153 -209 86 -10 181 41 181 99 0 50 -18 66 -73 68 -39 0
-47 4 -45 17 3 13 18 16 86 17 l82 2 2 -57 c0 -31 2 -69 3 -84 2 -32 -23 -54
-95 -80 -74 -28 -103 -28 -218 -2 -42 10 -101 74 -117 128 -43 144 0 272 110
330 38 21 173 22 219 3z"/>
<path d="M1765 801 c-50 -22 -108 -86 -126 -137 -18 -50 -18 -188 0 -237 17
-50 64 -103 115 -130 59 -31 193 -31 252 0 114 60 162 205 118 354 -20 68 -90
141 -149 158 -62 17 -164 13 -210 -8z m262 -49 c26 -15 69 -85 78 -127 9 -45
6 -135 -7 -178 -14 -45 -71 -115 -107 -129 -115 -44 -242 -18 -295 62 -34 52
-46 96 -46 164 0 158 64 235 204 246 70 5 114 -4 173 -38z"/>
<path d="M1828 753 c-30 -5 -82 -53 -104 -96 -8 -15 -16 -58 -18 -95 -4 -83
19 -143 71 -189 33 -30 43 -33 99 -33 118 0 171 58 179 199 4 79 -26 156 -75
191 -33 23 -96 33 -152 23z m129 -43 c48 -29 65 -62 71 -140 9 -124 -38 -197
-132 -207 -95 -11 -155 51 -164 166 -8 123 49 201 148 201 27 0 58 -8 77 -20z"/>
<path d="M2365 808 c-48 -17 -93 -55 -122 -106 -26 -44 -28 -55 -28 -158 0
-106 1 -113 30 -160 43 -69 106 -105 192 -111 175 -13 274 76 281 252 5 97 -8
148 -49 204 -43 60 -113 91 -204 90 -38 0 -83 -5 -100 -11z m174 -23 c35 -7
45 -12 96 -61 52 -48 76 -183 49 -276 -16 -51 -66 -118 -90 -118 -8 0 -14 -4
-14 -8 0 -11 -10 -13 -109 -17 -97 -4 -138 11 -184 66 -72 87 -69 277 5 356
57 62 130 79 247 58z"/>
<path d="M2387 739 c-18 -10 -40 -26 -50 -37 -43 -47 -58 -149 -36 -237 31
-124 187 -175 275 -90 51 49 63 88 61 187 -2 76 -5 88 -30 121 -55 72 -144 94
-220 56z m158 -29 c46 -28 69 -81 69 -160 0 -115 -59 -190 -149 -190 -91 0
-150 75 -149 190 1 74 18 115 64 154 40 33 116 36 165 6z"/>
<path d="M300 108 c0 -59 4 -98 10 -98 6 0 10 18 10 40 l0 40 49 0 c40 0 53 4
65 22 37 53 15 81 -68 88 l-66 5 0 -97z m115 37 c0 -29 -2 -30 -47 -33 l-48
-3 0 36 0 36 48 -3 c45 -3 47 -4 47 -33z"/>
<path d="M490 205 c-1 0 -2 -44 -3 -98 -1 -72 1 -97 11 -97 8 0 12 16 12 45 0
36 3 45 18 45 25 0 60 -27 77 -59 8 -16 24 -31 35 -34 21 -5 21 -5 4 21 -9 15
-25 36 -35 48 -19 20 -19 21 6 32 18 9 25 19 25 41 0 16 -6 33 -12 39 -10 7
-87 17 -138 17z m97 -21 c12 -3 24 -12 27 -20 11 -29 -5 -42 -55 -46 l-49 -3
0 38 c0 34 2 37 28 37 15 0 37 -3 49 -6z"/>
<path d="M734 200 c-54 -21 -73 -113 -34 -162 43 -56 138 -39 160 27 30 91
-43 169 -126 135z m80 -31 c21 -16 26 -29 26 -64 0 -35 -5 -48 -26 -64 -33
-26 -55 -26 -85 -2 -19 15 -24 29 -24 66 0 37 5 51 24 66 30 24 52 24 85 -2z"/>
<path d="M904 201 c-2 -2 -4 -46 -4 -98 0 -76 3 -93 15 -93 11 0 15 11 15 40
l0 40 41 0 c58 0 79 14 79 54 0 19 -6 38 -12 44 -13 10 -126 21 -134 13z m121
-41 c10 -31 -12 -50 -56 -50 -38 0 -39 1 -39 35 0 35 0 35 44 35 36 0 46 -4
51 -20z"/>
<path d="M1090 108 l0 -98 75 0 c43 0 75 4 75 10 0 6 -28 10 -65 10 l-65 0 0
35 0 35 60 0 c33 0 60 4 60 10 0 6 -27 10 -60 10 -60 0 -60 0 -60 30 0 30 0
30 60 30 41 0 60 4 60 13 0 8 -21 12 -70 12 l-70 0 0 -97z"/>
<path d="M1280 108 c0 -59 4 -98 10 -98 6 0 10 21 10 46 0 43 1 45 27 42 18
-2 37 -17 58 -44 16 -23 38 -44 48 -47 16 -5 16 -4 0 25 -10 16 -26 36 -36 45
-16 15 -16 17 5 27 27 13 36 67 16 83 -7 6 -41 13 -76 15 l-62 3 0 -97z m105
72 c20 -7 26 -16 23 -33 -3 -19 -10 -22 -55 -25 l-53 -3 0 35 c0 33 2 36 29
36 16 0 42 -5 56 -10z"/>
<path d="M1460 193 c0 -8 13 -13 33 -13 l32 0 -3 -85 c-3 -72 -1 -85 12 -85
13 0 16 14 16 84 l0 85 33 3 c57 5 24 20 -51 21 -52 2 -72 -2 -72 -10z"/>
<path d="M1650 110 c0 -60 4 -100 10 -100 6 0 10 40 10 100 0 60 -4 100 -10
100 -6 0 -10 -40 -10 -100z"/>
<path d="M1720 108 l0 -98 75 0 c43 0 75 4 75 10 0 6 -27 10 -62 10 l-63 0 1
32 c1 33 1 33 57 36 75 4 74 22 -1 22 -56 0 -58 1 -57 28 0 26 3 27 58 32 80
7 72 22 -13 23 l-70 2 0 -97z"/>
<path d="M1933 195 c-26 -18 -30 -57 -9 -74 8 -6 33 -17 57 -24 32 -9 45 -19
47 -34 7 -45 -75 -56 -98 -13 -12 23 -30 27 -30 7 0 -35 71 -64 114 -47 67 25
50 89 -29 109 -52 13 -68 37 -40 57 26 19 42 17 65 -6 33 -33 54 -23 27 13
-18 25 -77 32 -104 12z"/>
<path d="M2170 111 l0 -101 60 0 c33 0 60 4 60 10 0 6 -23 10 -51 10 l-50 0 2
87 c1 58 -2 88 -10 91 -8 3 -11 -26 -11 -97z"/>
<path d="M2290 193 c0 -8 14 -13 35 -13 l35 0 0 -85 c0 -50 4 -85 10 -85 6 0
10 35 10 85 l0 85 35 0 c21 0 35 5 35 13 0 8 -23 12 -80 12 -57 0 -80 -4 -80
-12z"/>
<path d="M2480 108 l0 -98 58 0 c77 0 97 20 97 95 0 73 -19 92 -96 97 l-59 3
0 -97z m126 35 c13 -31 14 -41 2 -72 -13 -34 -17 -36 -61 -39 l-47 -3 0 75 0
76 46 0 c42 0 46 -2 60 -37z"/>
</g>
</svg>
